<?xml version="1.0" encoding="utf-8"?>
<!-- Generator: Adobe Illustrator 13.0.2, SVG Export Plug-In . SVG Version: 6.00 Build 14948)  -->
<!DOCTYPE svg PUBLIC "-//W3C//DTD SVG 1.1//EN" "http://www.w3.org/Graphics/SVG/1.1/DTD/svg11.dtd">
<svg version="1.1" id="Ebene_1" xmlns="http://www.w3.org/2000/svg" xmlns:xlink="http://www.w3.org/1999/xlink" x="0px" y="0px"
	 width="14.35px" height="42.88px" viewBox="0 0 14.35 42.88" enable-background="new 0 0 14.35 42.88" xml:space="preserve">
<g>
	<path d="M1.497,21.612c0-2.031,0.209-3.666,0.627-4.904s1.039-2.193,1.863-2.865s1.861-1.008,3.111-1.008
		c0.922,0,1.73,0.186,2.426,0.557s1.27,0.906,1.723,1.605s0.809,1.551,1.066,2.555s0.387,2.357,0.387,4.061
		c0,2.016-0.207,3.643-0.621,4.881s-1.033,2.195-1.857,2.871s-1.865,1.014-3.123,1.014c-1.656,0-2.957-0.594-3.902-1.781
		C2.063,27.167,1.497,24.838,1.497,21.612z M3.665,21.612c0,2.82,0.33,4.697,0.99,5.631s1.475,1.4,2.443,1.4
		s1.783-0.469,2.443-1.406s0.99-2.813,0.99-5.625c0-2.828-0.33-4.707-0.99-5.637s-1.482-1.395-2.467-1.395
		c-0.969,0-1.742,0.41-2.32,1.23C4.028,16.858,3.665,18.792,3.665,21.612z"/>
</g>
</svg>
