<?xml version="1.0" standalone="no"?>
<!DOCTYPE svg PUBLIC "-//W3C//DTD SVG 20010904//EN"
 "http://www.w3.org/TR/2001/REC-SVG-20010904/DTD/svg10.dtd">
<svg version="1.0" xmlns="http://www.w3.org/2000/svg"
 width="650.000000pt" height="1280.000000pt" viewBox="0 0 650.000000 1280.000000"
 preserveAspectRatio="xMidYMid meet">
<metadata>
Created by potrace 1.15, written by Peter Selinger 2001-2017
</metadata>
<g transform="translate(0.000000,1280.000000) scale(0.100000,-0.100000)"
fill="#000000" stroke="none">
<path d="M3700 12791 c-268 -46 -387 -96 -570 -241 -63 -50 -146 -114 -183
-143 -87 -66 -175 -195 -288 -422 -71 -143 -84 -179 -124 -338 -25 -98 -57
-206 -71 -240 -58 -137 -144 -256 -293 -402 -50 -49 -105 -113 -122 -142 -16
-28 -77 -116 -135 -195 -58 -79 -114 -160 -125 -180 -10 -20 -39 -51 -64 -68
-85 -58 -144 -161 -160 -277 -6 -50 -9 -53 -69 -92 -34 -23 -75 -55 -92 -72
l-29 -32 30 7 c45 11 102 47 180 115 118 102 96 50 -36 -85 -49 -50 -89 -97
-89 -103 0 -16 12 -8 100 65 105 88 165 172 203 286 7 19 143 118 164 118 19
0 17 -10 -17 -82 -16 -34 -30 -78 -30 -96 0 -27 -11 -43 -66 -95 -36 -34 -79
-85 -96 -114 -16 -29 -44 -62 -63 -73 -18 -11 -45 -37 -60 -56 -27 -35 -65
-121 -65 -146 0 -19 48 31 126 134 41 53 86 104 100 113 25 16 25 16 10 -7 -8
-13 -27 -67 -42 -120 -24 -90 -31 -103 -90 -170 -78 -90 -117 -161 -138 -253
-28 -126 -55 -240 -62 -264 -6 -21 -5 -22 14 -12 32 17 69 105 97 236 29 132
40 154 135 260 35 38 71 83 81 100 l19 30 0 -45 c0 -51 -23 -105 -99 -229 -61
-101 -76 -147 -60 -188 22 -54 12 -102 -40 -193 -26 -47 -51 -93 -54 -102 -11
-30 19 -20 52 17 39 45 52 71 86 175 34 103 56 149 85 175 l22 20 -7 -55 c-3
-30 -27 -113 -51 -185 -30 -85 -47 -155 -51 -202 -5 -65 -9 -75 -39 -104 -52
-51 -44 -75 16 -44 41 21 67 70 90 171 30 129 37 143 106 209 62 61 72 80 88
176 4 19 13 44 21 55 14 17 15 13 13 -49 -2 -37 0 -67 5 -67 4 0 7 7 7 15 0 8
5 15 10 15 6 0 10 -2 10 -4 0 -2 -31 -70 -69 -152 -104 -224 -140 -354 -141
-505 0 -41 -7 -69 -24 -100 -31 -56 -26 -100 9 -90 27 7 85 76 85 100 0 11 12
4 35 -21 41 -45 45 -62 11 -46 -27 12 -61 4 -51 -12 3 -5 -1 -10 -9 -10 -9 0
-16 -2 -16 -5 0 -17 51 -70 92 -97 27 -17 55 -40 63 -51 17 -24 20 -64 6 -69
-5 -1 6 -41 25 -88 40 -99 85 -150 135 -150 28 0 30 2 18 16 -12 15 -10 16 19
10 17 -4 32 -5 32 -3 0 3 -16 21 -35 40 -25 25 -35 44 -35 66 0 44 17 39 86
-22 66 -60 93 -77 123 -77 16 0 11 9 -27 46 l-47 47 43 -37 c26 -22 50 -35 59
-32 8 3 18 6 21 6 4 0 -15 20 -41 43 -29 27 -47 52 -47 66 0 12 4 19 10 16 6
-3 14 4 18 16 8 22 9 21 15 -7 3 -16 16 -44 29 -63 26 -39 115 -107 126 -97 3
4 -20 32 -51 63 -32 30 -56 58 -53 61 3 3 33 -21 66 -52 33 -32 66 -56 72 -54
18 6 55 85 73 158 29 114 75 201 75 140 0 -11 4 -20 9 -20 4 0 11 28 14 63 3
34 11 80 17 102 l12 39 37 -144 c26 -99 52 -174 83 -235 25 -49 49 -101 53
-115 4 -14 18 -48 31 -75 33 -71 48 -148 35 -174 -6 -11 -44 -41 -84 -67 -62
-40 -83 -48 -147 -56 -106 -14 -204 -47 -314 -108 -79 -44 -109 -68 -179 -144
-93 -102 -212 -243 -271 -320 -65 -86 -207 -225 -281 -274 -38 -25 -88 -64
-110 -86 -75 -76 -153 -146 -232 -208 -204 -161 -537 -484 -549 -533 -3 -14
-4 -36 0 -49 4 -16 -1 -29 -15 -42 -44 -39 -137 -173 -205 -292 -38 -68 -93
-155 -121 -193 -29 -39 -53 -78 -53 -88 0 -41 -110 -231 -283 -491 l-137 -204
0 -67 c0 -48 4 -70 16 -80 8 -7 47 -59 85 -115 70 -103 107 -139 173 -171 26
-12 39 -14 44 -6 4 6 33 16 66 23 48 10 60 10 67 -2 22 -33 5 -116 -55 -271
-14 -37 -26 -75 -26 -83 0 -9 14 -46 32 -83 64 -135 202 -234 372 -266 97 -19
126 -19 126 -1 0 8 14 16 32 20 29 5 57 25 172 119 21 17 24 17 75 -4 44 -19
52 -25 46 -43 -40 -141 -44 -201 -21 -280 27 -91 62 -121 196 -169 34 -13 52
-28 74 -62 15 -25 36 -50 47 -55 16 -9 21 -4 39 29 11 22 24 42 29 46 16 9
181 -21 239 -44 28 -11 107 -37 175 -57 152 -44 228 -48 311 -15 50 21 68 23
144 18 48 -3 110 -13 138 -21 l51 -16 6 -172 c11 -292 51 -515 179 -998 l81
-304 -18 -51 c-9 -27 -32 -68 -50 -90 -18 -22 -46 -67 -63 -100 -17 -33 -63
-105 -102 -160 -114 -159 -175 -308 -168 -407 3 -39 6 -44 53 -67 43 -23 65
-26 165 -29 80 -3 135 1 183 12 38 9 70 16 73 16 11 0 1 -32 -26 -83 -35 -66
-38 -99 -10 -127 48 -48 321 -160 725 -297 312 -106 346 -116 415 -116 63 -1
87 5 151 32 75 32 163 91 183 123 15 25 -45 92 -200 221 -186 155 -233 202
-397 396 -141 168 -148 178 -172 255 -75 246 -97 569 -46 666 13 25 74 126
136 225 62 99 127 209 144 244 18 35 51 87 73 115 36 46 198 359 204 395 4 24
64 151 102 219 34 58 38 62 73 62 70 0 163 37 208 82 l42 41 107 -13 c249 -29
347 -25 412 20 21 14 41 16 115 12 51 -2 96 -10 105 -17 27 -22 84 -48 125
-56 46 -9 225 19 225 36 0 5 16 23 35 38 29 23 35 34 35 67 0 21 4 41 8 44 5
3 37 -4 73 -15 178 -57 287 -1 305 154 6 48 10 58 28 61 11 2 54 9 94 15 129
20 211 69 231 138 7 23 3 48 -14 99 -12 38 -51 161 -85 274 -34 113 -66 218
-71 234 -5 17 -29 62 -53 100 -55 89 -71 122 -83 166 l-10 35 76 0 c56 0 87 5
116 20 38 19 40 22 37 60 -6 68 -43 143 -187 370 -261 414 -311 514 -370 736
-61 227 -101 305 -280 549 -63 85 -133 188 -156 228 l-41 72 -3 119 -2 119 76
-5 c101 -7 170 11 319 86 66 33 122 57 125 54 3 -3 39 -9 79 -13 53 -6 79 -5
98 5 14 7 54 19 90 25 88 17 119 35 137 77 15 38 11 83 -10 83 -6 0 -18 4 -26
9 -12 8 -9 15 17 39 40 38 41 67 2 87 -55 28 -90 19 -200 -55 -30 -20 -63 -40
-73 -43 -44 -16 -274 172 -330 271 -22 38 -27 35 106 56 54 8 114 23 135 34
45 23 84 77 80 112 -3 24 -6 25 -118 36 -236 24 -388 15 -472 -27 -21 -11 -39
-19 -41 -19 -2 0 -7 27 -10 59 -8 70 -33 139 -116 319 -60 129 -101 257 -101
317 0 53 26 126 93 263 l64 134 22 -31 c58 -80 105 -256 87 -325 -6 -26 -8
-27 -25 -12 -24 21 -30 20 -71 -15 -40 -34 -36 -48 21 -87 62 -42 126 -7 174
94 28 59 55 202 49 254 -18 144 -44 219 -93 269 -30 31 -54 93 -66 173 -6 40
-4 45 20 58 35 19 72 66 129 167 70 124 62 162 -64 318 l-73 90 9 175 c16 313
13 369 -29 495 -64 197 -69 224 -56 322 21 156 10 234 -59 444 -38 112 -66
217 -72 265 -15 126 -40 499 -40 614 0 290 -55 448 -206 589 -157 146 -366
218 -770 266 -149 17 -413 26 -474 16z"/>
<path d="M1 5164 c0 -11 3 -14 6 -6 3 7 2 16 -1 19 -3 4 -6 -2 -5 -13z"/>
</g>
</svg>
