<?xml version="1.0" encoding="utf-8"?>
<!-- Svg Vector Icons : http://www.onlinewebfonts.com/icon -->
<!DOCTYPE svg PUBLIC "-//W3C//DTD SVG 1.1//EN" "http://www.w3.org/Graphics/SVG/1.1/DTD/svg11.dtd">
<svg version="1.1" xmlns="http://www.w3.org/2000/svg" xmlns:xlink="http://www.w3.org/1999/xlink" x="0px" y="0px" viewBox="0 0 1000 1000" enable-background="new 0 0 1000 1000" xml:space="preserve">
<metadata> Svg Vector Icons : http://www.onlinewebfonts.com/icon </metadata>
<g><g transform="translate(500.000000,0.000000) scale(0.100000,-0.100000) rotate(-90.1 30 30)"><path d="M4069.5,4155.6c-825.1-823.2-854.4-856.3-854.4-926.6c0-52.7,13.7-87.8,48.8-120.9c101.4-103.4,95.6-107.3,862.2,657.4l708.1,708.1V113.9v-4359.7l-698.3,698.3c-667.1,667.1-700.3,696.4-770.5,696.4c-95.6,0-150.2-54.6-150.2-150.2c0-70.2,33.2-107.3,856.3-930.5c815.4-815.4,862.2-858.3,928.5-858.3c66.3,0,113.1,42.9,928.5,858.3c823.2,823.2,856.3,860.2,856.3,930.5c0,95.6-54.6,150.2-150.2,150.2c-70.2,0-103.4-29.3-770.5-696.4l-698.3-698.3V113.9v4359.7l688.6-688.6c376.5-378.4,700.3-696.4,715.9-706.1c93.6-58.5,214.6,27.3,214.6,150.2c0,70.2-31.2,103.4-854.4,926.6C5091.7,4996.3,5076.1,5010,5000,5010S4908.3,4996.3,4069.5,4155.6z"/></g></g>
</svg>