<?xml version="1.0" encoding="utf-8"?>
<!-- Svg Vector Icons : http://www.onlinewebfonts.com/icon -->
<!DOCTYPE svg PUBLIC "-//W3C//DTD SVG 1.1//EN" "http://www.w3.org/Graphics/SVG/1.1/DTD/svg11.dtd">
<svg version="1.1" xmlns="http://www.w3.org/2000/svg" xmlns:xlink="http://www.w3.org/1999/xlink" x="0px" y="0px" viewBox="0 0 1000 1000" enable-background="new 0 0 1000 1000" xml:space="preserve">
<metadata> Svg Vector Icons : http://www.onlinewebfonts.com/icon </metadata>
<g><g transform="translate(0.000000,502.000000) scale(0.100000,-0.100000)"><path d="M193.7,4884.3c-29.3-15.6-62.5-44.9-74.2-66.4c-11.7-23.4-19.5-511.6-19.5-1415.7V2021.5l56.6-56.6c87.9-85.9,222.6-74.2,279.2,27.3c19.5,33.2,27.3,306.6,35.1,1161.9l9.8,1117L4874.4-122.6l4393.6-4393.7H8141.4H7016.6L6956-4567c-78.1-64.5-84-173.8-13.7-255.8l46.9-54.7h1398.2h1398.1l52.7,54.7l54.7,52.7l5.9,1363c3.9,997.9-2,1374.7-17.6,1415.7c-50.8,123-197.2,150.4-292.9,54.7l-56.6-56.6v-1130.6v-1128.7L5143.9,131.3C2730.3,2542.9,752.2,4521,748.3,4530.8c-3.9,7.8,497.9,13.7,1115,13.7c1093.5,0,1122.8,0,1171.6,39.1c99.6,78.1,84,246-27.3,302.7C2925.6,4929.2,271.8,4927.2,193.7,4884.3z"/></g></g>
</svg>