<?xml version="1.0" encoding="utf-8"?>
<!-- Svg Vector Icons : http://www.onlinewebfonts.com/icon -->
<!DOCTYPE svg PUBLIC "-//W3C//DTD SVG 1.1//EN" "http://www.w3.org/Graphics/SVG/1.1/DTD/svg11.dtd">
<svg version="1.1" xmlns="http://www.w3.org/2000/svg" xmlns:xlink="http://www.w3.org/1999/xlink" x="0px" y="0px" viewBox="0 0 1000 1000" enable-background="new 0 0 1000 1000" xml:space="preserve">
<metadata> Svg Vector Icons : http://www.onlinewebfonts.com/icon </metadata>
<g><g transform="translate(0.000000,502.000000) scale(0.100000,-0.100000)"><path d="M7001,4904.6c-62.5-25.4-105.5-97.6-105.5-177.7c0-56.6,13.7-84,60.5-123l60.5-50.8h1124.8h1126.7L4874.4,159.4L480.8-4234.2l-9.8,1117c-7.8,855.3-15.6,1128.7-35.1,1161.9c-56.6,101.5-191.4,113.3-279.2,27.3l-56.6-56.6v-1380.6c0-908,7.8-1392.3,19.5-1417.7c52.7-95.7,37.1-95.7,1484.1-95.7c1478.2,0,1433.3-3.9,1484.1,115.2c31.2,76.1,9.8,167.9-52.7,216.7c-48.8,39.1-78.1,39.1-1171.6,39.1c-617.1,0-1118.9,7.8-1115,15.6c1.9,7.8,1980.1,1985.9,4395.6,4395.6l4387.8,4381.9V3158.8V2030.1l56.6-56.6c95.7-95.7,242.1-68.3,292.9,54.7c15.6,41,21.5,417.9,17.6,1415.7l-5.9,1363l-54.7,52.7l-52.7,54.7l-1372.8,3.9C7659,4920.2,7022.4,4914.3,7001,4904.6z"/></g></g>
</svg>